<?xml version="1.0" standalone="no"?>
<!DOCTYPE svg PUBLIC "-//W3C//DTD SVG 20010904//EN"
 "http://www.w3.org/TR/2001/REC-SVG-20010904/DTD/svg10.dtd">
<svg version="1.0" xmlns="http://www.w3.org/2000/svg"
 width="143.000000pt" height="143.000000pt" viewBox="0 0 143.000000 143.000000"
 preserveAspectRatio="xMidYMid meet">
<metadata>
Created by potrace 1.11, written by Peter Selinger 2001-2013
</metadata>
<g transform="translate(0.000000,143.000000) scale(0.100000,-0.100000)"
fill="#000000" stroke="none">
<path d="M915 1062 c-66 -6 -75 -11 -75 -42 0 -23 5 -30 19 -30 11 0 22 4 25
8 2 4 19 9 36 10 l32 2 -7 -47 c-3 -27 -9 -64 -11 -83 -11 -74 -14 -85 -29
-96 -8 -6 -15 -20 -15 -31 0 -18 6 -20 48 -18 26 2 55 4 64 4 21 1 28 33 10
46 -11 9 -11 26 -1 100 6 50 15 99 19 109 8 23 49 29 68 9 18 -18 41 -4 57 34
l13 30 -112 -1 c-61 -1 -124 -2 -141 -4z"/>
<path d="M644 1053 c-12 -2 -39 -18 -59 -36 -28 -24 -37 -41 -40 -70 -5 -57
24 -85 105 -98 76 -13 85 -19 76 -52 -6 -24 -44 -45 -73 -41 -7 1 -17 2 -22 3
-5 0 -11 11 -14 22 -5 18 -11 20 -34 14 -35 -8 -33 -6 -40 -47 -4 -31 -2 -36
18 -41 46 -13 134 -7 174 12 50 23 75 50 85 94 15 68 -27 101 -143 112 -26 2
-51 31 -44 49 14 35 81 40 92 6 4 -14 12 -16 37 -11 26 5 34 13 39 39 5 25 3
35 -10 41 -17 9 -113 12 -147 4z"/>
<path d="M1240 1049 c-19 -4 -47 -21 -62 -38 -50 -56 -31 -107 52 -137 50 -18
60 -33 41 -63 -5 -8 -26 -14 -47 -15 -33 -1 -40 3 -42 20 -5 33 -47 37 -67 8
-8 -13 -15 -30 -15 -38 0 -20 60 -38 127 -39 l54 -1 -35 -18 c-19 -10 -73 -28
-118 -39 -72 -18 -124 -22 -391 -28 -169 -3 -307 -4 -307 -1 0 3 16 16 35 30
79 57 87 196 17 272 -35 38 -104 59 -172 53 -30 -2 -91 -7 -135 -10 -44 -4
-81 -8 -84 -10 -7 -8 50 -75 65 -75 8 0 14 -10 15 -22 0 -13 2 -32 3 -43 2
-11 6 -49 11 -85 4 -36 9 -73 11 -83 1 -10 -3 -21 -11 -24 -8 -3 -15 -11 -15
-18 0 -8 -29 -23 -65 -35 -36 -12 -65 -23 -65 -26 0 -2 21 -31 47 -63 27 -33
61 -86 78 -118 16 -32 31 -60 32 -62 1 -2 21 13 45 34 98 84 305 161 578 215
85 17 164 33 175 36 11 3 30 7 43 10 48 10 179 62 217 86 50 32 105 84 106
101 0 6 2 20 4 29 5 27 -29 63 -75 78 -49 16 -67 42 -45 63 8 9 23 14 32 12
10 -2 24 -4 31 -4 6 -1 12 -9 12 -19 0 -28 45 -26 64 3 23 34 20 42 -16 53
-54 16 -91 20 -128 11z m-851 -115 c44 -31 65 -122 40 -177 -12 -27 -36 -42
-87 -56 -40 -12 -48 0 -57 84 -3 33 -9 76 -13 95 -7 31 -8 47 -3 65 3 13 99 4
120 -11z"/>
</g>
</svg>
